<?xml version="1.0" encoding="UTF-8"?>
<svg width="400" height="300" viewBox="0 0 400 300" fill="none" xmlns="http://www.w3.org/2000/svg">
  <!-- Herramientas de análisis -->
  <rect x="100" y="80" width="200" height="140" rx="10" fill="#FFFFFF" fill-opacity="0.2"/>
  
  <!-- Elementos de la herramienta -->
  <rect x="120" y="100" width="160" height="20" rx="5" fill="#FFFFFF" fill-opacity="0.6"/>
  <rect x="120" y="130" width="100" height="20" rx="5" fill="#FFFFFF" fill-opacity="0.4"/>
  <rect x="230" y="130" width="50" height="20" rx="5" fill="#FFFFFF" fill-opacity="0.5"/>
  
  <!-- Botones de la herramienta -->
  <circle cx="140" cy="180" r="15" fill="#FFFFFF" fill-opacity="0.7"/>
  <circle cx="180" cy="180" r="15" fill="#FFFFFF" fill-opacity="0.7"/>
  <circle cx="220" cy="180" r="15" fill="#FFFFFF" fill-opacity="0.7"/>
  <circle cx="260" cy="180" r="15" fill="#FFFFFF" fill-opacity="0.7"/>
  
  <!-- Engranaje de configuración -->
  <circle cx="330" cy="70" r="25" fill="#FFFFFF" fill-opacity="0.3"/>
  <circle cx="330" cy="70" r="15" fill="#FFFFFF" fill-opacity="0.5"/>
  <circle cx="330" cy="70" r="5" fill="#FFFFFF"/>
  
  <!-- Líneas del engranaje -->
  <line x1="330" y1="40" x2="330" y2="50" stroke="#FFFFFF" stroke-width="3"/>
  <line x1="330" y1="90" x2="330" y2="100" stroke="#FFFFFF" stroke-width="3"/>
  <line x1="300" y1="70" x2="310" y2="70" stroke="#FFFFFF" stroke-width="3"/>
  <line x1="350" y1="70" x2="360" y2="70" stroke="#FFFFFF" stroke-width="3"/>
  <line x1="310" y1="50" x2="320" y2="60" stroke="#FFFFFF" stroke-width="3"/>
  <line x1="340" y1="80" x2="350" y2="90" stroke="#FFFFFF" stroke-width="3"/>
  <line x1="310" y1="90" x2="320" y2="80" stroke="#FFFFFF" stroke-width="3"/>
  <line x1="340" y1="60" x2="350" y2="50" stroke="#FFFFFF" stroke-width="3"/>
</svg>
